<?xml version="1.0" encoding="utf-8"?>
<!-- Generator: Adobe Illustrator 20.0.0, SVG Export Plug-In . SVG Version: 6.00 Build 0)  -->
<!DOCTYPE svg PUBLIC "-//W3C//DTD SVG 1.1//EN" "http://www.w3.org/Graphics/SVG/1.1/DTD/svg11.dtd">
<svg version="1.1" id="Layer_1" xmlns="http://www.w3.org/2000/svg" xmlns:xlink="http://www.w3.org/1999/xlink" x="0px" y="0px"
	 viewBox="0 0 167.2 147.2" style="enable-background:new 0 0 167.2 147.2;" xml:space="preserve">
<style type="text/css">
	.st0{fill:#FFFFFF;}
	.st1{fill:#00AFE8;}
	.st2{fill:#0070AF;}
	.st3{display:none;fill:#00AFE8;}
	.st4{display:none;fill:#0070AF;}
	.st5{display:none;}
</style>
<rect class="st0" width="167.2" height="147.2"/>
<g>
	<path d="M38.1,121.7h7.4L29.7,83.9h-5.6L8.2,121.7h6.7l4.1-10.1h15.1L38.1,121.7z M25.6,106.8c-2.4,0-2.8,0-4.9,0.1
		c0.8-1.9,1-2.1,2-4.5l1.1-2.6c1.4-3.3,1.7-4.2,2.8-7.5h0.2c1,3.2,1.3,4,2.7,7.5l1.1,2.7c0.8,2.2,1.1,2.5,1.9,4.4
		c-2-0.1-2.4-0.1-4.8-0.1H25.6z"/>
	<path d="M89.2,84.6h-5.4l-9.1,20c-1.7,3.7-2,4.6-3.3,8h-0.2c-1.3-3.5-1.6-4.4-3.3-8l-9.1-20h-5.7l-5,37.2h6.1l1.6-13
		c0.7-5.7,0.8-7.1,1.1-12.5l0.2-0.1c1.9,5,2.4,6.3,4.8,11.6l6.5,14h4.4l6.6-14.2c2.4-5.3,2.9-6.6,4.8-11.6l0.2,0.1
		c0.3,5.4,0.3,6.7,1.1,12.5l1.6,13.3h6.8L89.2,84.6z"/>
	<path d="M96.2,84.6v5.7H107c0.6,0,0.7,0,1.3-0.2c-0.2,0.6-0.2,0.7-0.2,1.3v30.3h6.9V91.4c0-0.6,0-0.7-0.2-1.3
		c0.6,0.2,0.7,0.2,1.3,0.2H127v-5.7H96.2z"/>
	<path d="M151.8,121.7h7.4l-15.7-37.8h-5.6L122,121.7h6.7l4.1-10.1h15.1L151.8,121.7z M139.3,106.8c-2.4,0-2.8,0-4.9,0.1
		c0.8-1.9,1-2.1,2-4.5l1.1-2.6c1.4-3.3,1.7-4.2,2.8-7.5h0.2c1,3.2,1.3,4,2.7,7.5l1.1,2.7c0.8,2.2,1.1,2.5,1.9,4.4
		c-2-0.1-2.4-0.1-4.8-0.1H139.3z"/>
</g>
<g>
	<g>
		<path class="st1" d="M7.4,7.4h152.4v61.4c-14.1-6.1-22.8-8.3-38.1-9.5c-30.5-2.6-45.7,21.6-76.2,19c-15.3-1.3-24-3.5-38.1-9.5
			C7.4,68.8,7.4,7.4,7.4,7.4z"/>
	</g>
	<g>
		<rect x="7.4" y="129.3" class="st2" width="152.4" height="10.2"/>
	</g>
</g>
<path class="st3" d="M7.7,7.5H160v61.3c-14.1-6.1-22.8-8.2-38.1-9.5c-30.5-2.5-45.6,21.6-76.1,19c-15.2-1.3-24-3.5-38.1-9.5
	C7.7,68.8,7.7,7.5,7.7,7.5z"/>
<rect x="7.7" y="129.3" class="st4" width="152.2" height="10.1"/>
<path class="st5" d="M70.2,85.5l4.8,37.1h-6.8l-1.6-13.3c-0.2-1.5-0.3-2.7-0.4-3.7s-0.2-1.9-0.3-2.8c-0.1-0.8-0.2-1.7-0.2-2.7
	c-0.1-0.9-0.2-2-0.2-3.4l-0.2-0.1c-0.5,1.2-0.8,2.3-1.2,3.2c-0.3,0.8-0.7,1.7-1,2.5s-0.7,1.6-1.1,2.5c-0.4,0.9-0.8,2-1.5,3.3
	l-6.6,14.2h-4.4l-6.5-14c-0.6-1.3-1.1-2.4-1.5-3.3c-0.4-0.8-0.7-1.7-1.1-2.5c-0.3-0.8-0.7-1.6-1-2.5c-0.3-0.8-0.7-1.9-1.2-3.2
	L38,97.2c-0.1,1.4-0.2,2.5-0.2,3.5c-0.1,0.9-0.2,1.8-0.2,2.7c-0.1,0.8-0.2,1.8-0.3,2.8s-0.2,2.2-0.4,3.6l-1.6,13h-6.1l5-37.1h5.7
	l9.1,20c0.4,0.9,0.8,1.7,1.1,2.3c0.3,0.6,0.5,1.2,0.7,1.8c0.2,0.6,0.5,1.1,0.7,1.8c0.2,0.6,0.5,1.4,0.8,2.2h0.2
	c0.3-0.8,0.6-1.6,0.8-2.2s0.5-1.1,0.7-1.7s0.5-1.2,0.8-1.8c0.3-0.6,0.6-1.4,1-2.3l9.1-20h5.3V85.5z"/>
<path class="st5" d="M110.9,88l-3.4,5.6c-1.5-1-2.9-1.7-4.2-2.1c-1.3-0.3-2.7-0.6-4.2-0.6c-1.8,0-3.4,0.3-4.9,1
	c-1.4,0.6-2.7,1.5-3.7,2.6c-1.1,1.1-1.9,2.5-2.4,4.1c-0.6,1.5-0.8,3.3-0.8,5.2c0,1.9,0.3,3.7,1,5.3c0.6,1.6,1.5,3,2.6,4.2
	s2.5,2.1,4,2.8c1.5,0.6,3.2,1,5,1c3.1,0,5.9-0.9,8.6-2.7l2.8,5.3c-1.9,1.3-3.9,2.3-5.9,2.9s-4.1,1-6.4,1c-2.8,0-5.3-0.5-7.7-1.5
	c-2.3-1-4.4-2.3-6.1-4s-3.1-3.7-4-6.1c-1-2.3-1.4-4.9-1.4-7.7c0-2.8,0.5-5.4,1.5-7.9c1-2.4,2.3-4.5,4-6.2c1.8-1.8,3.8-3.1,6.2-4.1
	c2.3-1,4.9-1.5,7.6-1.5c2.3,0,4.4,0.3,6.2,0.8C107.1,85.9,108.9,86.8,110.9,88z"/>
<path class="st5" d="M138.8,85.5v5.7h-12.9c-0.3,0-0.5,0-0.7,0c-0.1-0.1-0.3-0.1-0.6-0.2c0.1,0.3,0.1,0.5,0.1,0.7
	c0.1,0.1,0.1,0.3,0.1,0.6v8c0,0.3,0,0.5,0,0.7c-0.1,0.1-0.1,0.3-0.2,0.6c0.3-0.1,0.5-0.1,0.7-0.1c0.1-0.1,0.3-0.1,0.6-0.1h11.3v5.5
	h-11.3c-0.3,0-0.5,0-0.7,0c-0.1-0.1-0.3-0.1-0.6-0.2c0.1,0.3,0.1,0.5,0.1,0.7c0.1,0.1,0.1,0.3,0.1,0.6v14.4h-6.9V85.5H138.8z"/>
</svg>
