<?xml version="1.0" encoding="utf-8"?>
<!-- Generator: Adobe Illustrator 20.0.0, SVG Export Plug-In . SVG Version: 6.00 Build 0)  -->
<!DOCTYPE svg PUBLIC "-//W3C//DTD SVG 1.1//EN" "http://www.w3.org/Graphics/SVG/1.1/DTD/svg11.dtd">
<svg version="1.1" id="Layer_1" xmlns="http://www.w3.org/2000/svg" xmlns:xlink="http://www.w3.org/1999/xlink" x="0px" y="0px"
	 viewBox="0 0 102.3 96.9" style="enable-background:new 0 0 102.3 96.9;" xml:space="preserve">
<style type="text/css">
	.st0{fill:#FFFFFF;}
	.st1{fill:#0070AF;}
	.st2{fill:#70D0F6;}
	.st3{opacity:0.7;fill:url(#SVGID_1_);}
	.st4{fill:url(#SVGID_2_);}
	.st5{opacity:0.5;fill:#10ACE4;}
	.st6{fill:#00BDF2;}
</style>
<rect x="1.4" y="1.4" class="st0" width="99.4" height="94.1"/>
<path class="st1" d="M93.9,92.7H8.4c-2.3,0-4.1-1.8-4.1-4.1V8.4c0-2.3,1.8-4.1,4.1-4.1h85.5c2.3,0,4.1,1.8,4.1,4.1v80.2
	C98,90.8,96.2,92.7,93.9,92.7z"/>
<g>
	<path class="st0" d="M17.6,84.7v-5c0-0.3,0-0.5,0-0.8h0c-0.1,0.3-0.3,0.6-0.4,0.8l-1.8,2.8h-0.7l-1.9-2.8c-0.1-0.2-0.3-0.4-0.5-0.8
		h0c0,0.3,0,0.5,0,0.8v5h-1.2v-7.9h1.2l2.3,3.3c0.2,0.3,0.4,0.5,0.5,0.8h0c0.1-0.2,0.2-0.5,0.5-0.8l2.1-3.3h1.2v7.9H17.6z"/>
	<path class="st0" d="M24.4,79.8c0.5,0.5,0.8,1.3,0.8,2.2c0,0.9-0.3,1.7-0.8,2.2c-0.5,0.5-1.2,0.8-2,0.8c-0.8,0-1.4-0.2-1.9-0.7
		c-0.5-0.5-0.8-1.3-0.8-2.2c0-0.9,0.3-1.7,0.8-2.2c0.5-0.5,1.1-0.8,1.9-0.8C23.2,79,23.9,79.2,24.4,79.8z M20.9,81.9
		c0,1.2,0.6,2,1.5,2c1,0,1.5-0.8,1.5-2c0-1.2-0.5-2-1.5-2C21.4,80,20.9,80.8,20.9,81.9z"/>
	<path class="st0" d="M27.8,84.9c-0.8,0-1.4-0.2-1.8-0.4v-8.2h1.2v2.9C27.6,79,28,79,28.4,79c1.4,0,2.6,0.9,2.6,2.8
		C31,83.7,29.6,84.9,27.8,84.9z M28.2,80c-0.4,0-0.7,0.1-0.9,0.2v3.5c0.2,0.1,0.5,0.1,0.8,0.1c1,0,1.8-0.9,1.8-2
		C29.8,80.8,29.2,80,28.2,80z"/>
	<path class="st0" d="M33.5,77.3c0,0.4-0.3,0.8-0.8,0.8c-0.5,0-0.8-0.3-0.8-0.8c0-0.4,0.3-0.8,0.8-0.8
		C33.2,76.6,33.5,76.9,33.5,77.3z M32.1,84.7v-5.7h1.2v5.7H32.1z"/>
	<path class="st0" d="M35.9,84.9c-0.8,0-1.2-0.5-1.2-1.2v-7.4h1.2v6.9c0,0.5,0.1,0.6,0.4,0.6c0.1,0,0.2,0,0.4,0l0.2,0.9
		C36.5,84.8,36.2,84.9,35.9,84.9z"/>
	<path class="st0" d="M38.7,82.2c0,0.9,0.7,1.6,1.7,1.6c0.5,0,1-0.1,1.4-0.4l0.3,0.8c-0.6,0.4-1.3,0.6-2,0.6c-1.9,0-2.7-1.4-2.7-3
		c0-1.6,0.9-2.9,2.5-2.9c1.5,0,2.4,1.2,2.4,2.9c0,0.1,0,0.2,0,0.3H38.7z M39.9,79.9c-0.7,0-1.2,0.7-1.2,1.4h2.4
		C41.1,80.6,40.7,79.9,39.9,79.9z"/>
	<path class="st0" d="M45,84.9c-0.9,0-1.5-0.2-2-0.5l0.4-0.9c0.4,0.3,0.9,0.5,1.5,0.5c0.6,0,1-0.3,1-0.7c0-1.1-2.6-0.7-2.6-2.7
		c0-0.9,0.7-1.6,2-1.6c0.7,0,1.2,0.1,1.6,0.3v1.1c-0.4-0.2-0.9-0.4-1.5-0.4c-0.5,0-0.9,0.2-0.9,0.6c0,1,2.6,0.7,2.6,2.6
		C47.2,84.4,46.2,84.9,45,84.9z"/>
	<path class="st0" d="M55.6,84.7l-0.8-2h-2.9l-0.7,2h-1.2l3-7.9h0.9l3.1,7.9H55.6z M53.7,79.6c-0.1-0.4-0.2-0.7-0.3-1h0
		c-0.1,0.3-0.2,0.6-0.3,1l-0.8,2.1h2.1L53.7,79.6z"/>
	<path class="st0" d="M61.2,84.7L61,84.2c-0.4,0.3-1,0.7-1.8,0.7c-0.8,0-1.9-0.4-1.9-2.1v-3.6h1.2v3.6c0,0.8,0.4,1.2,1.1,1.2
		c0.5,0,1-0.3,1.2-0.6v-4.2h1.2v3.8c0,1.2,0,1.6,0.1,1.8H61.2z"/>
	<path class="st0" d="M65.1,84.9c-0.9,0-1.5-0.2-2-0.5l0.4-0.9c0.4,0.3,0.9,0.5,1.5,0.5c0.6,0,1-0.3,1-0.7c0-1.1-2.6-0.7-2.6-2.7
		c0-0.9,0.7-1.6,2-1.6c0.7,0,1.2,0.1,1.6,0.3v1.1c-0.4-0.2-0.9-0.4-1.5-0.4c-0.5,0-0.9,0.2-0.9,0.6c0,1,2.6,0.7,2.6,2.6
		C67.4,84.4,66.3,84.9,65.1,84.9z"/>
	<path class="st0" d="M70.3,84.9c-0.9,0-1.3-0.5-1.3-1.3v-3.5h-1v-1h1v-1.3l1.2-0.4v1.7h1.8l-0.4,1h-1.4v3.1c0,0.4,0.2,0.7,0.5,0.7
		c0.4,0,0.7-0.2,1-0.3l0.3,0.8C71.5,84.7,70.8,84.9,70.3,84.9z"/>
	<path class="st0" d="M75.9,80.3c-0.2-0.1-0.4-0.2-0.6-0.2c-0.3,0-0.8,0.2-1.1,0.6v4.1h-1.2v-5.7h1l0.2,0.6c0.6-0.6,1.1-0.8,1.6-0.8
		c0.3,0,0.5,0.1,0.7,0.2L75.9,80.3z"/>
	<path class="st0" d="M80,84.7l-0.2-0.5c-0.4,0.3-0.9,0.6-1.7,0.6c-1,0-1.8-0.7-1.8-1.8c0-1.2,0.9-1.8,2.3-1.9l1.1,0
		c0,0,0-0.1,0-0.2c0-0.8-0.5-1.1-1.1-1.1c-0.6,0-1.1,0.2-1.5,0.5l-0.4-0.8c0.7-0.5,1.4-0.6,2.1-0.6c1.3,0,2.1,0.5,2.1,2V83
		c0,1.1,0,1.5,0.1,1.7H80z M79.6,82.1l-0.9,0c-0.8,0-1.2,0.3-1.2,0.8c0,0.5,0.3,0.9,1,0.9c0.6,0,1-0.3,1.2-0.5V82.1z"/>
	<path class="st0" d="M83.5,84.9c-0.8,0-1.2-0.5-1.2-1.2v-7.4h1.2v6.9c0,0.5,0.1,0.6,0.4,0.6c0.1,0,0.2,0,0.4,0l0.2,0.9
		C84.1,84.8,83.8,84.9,83.5,84.9z"/>
	<path class="st0" d="M86.9,77.3c0,0.4-0.3,0.8-0.8,0.8c-0.5,0-0.8-0.3-0.8-0.8c0-0.4,0.3-0.8,0.8-0.8
		C86.6,76.6,86.9,76.9,86.9,77.3z M85.5,84.7v-5.7h1.2v5.7H85.5z"/>
	<path class="st0" d="M91.5,84.7l-0.2-0.5c-0.4,0.3-0.9,0.6-1.7,0.6c-1,0-1.8-0.7-1.8-1.8c0-1.2,0.9-1.8,2.3-1.9l1.1,0
		c0,0,0-0.1,0-0.2c0-0.8-0.5-1.1-1.1-1.1c-0.6,0-1.1,0.2-1.5,0.5l-0.4-0.8c0.7-0.5,1.4-0.6,2.1-0.6c1.3,0,2.1,0.5,2.1,2V83
		c0,1.1,0,1.5,0.1,1.7H91.5z M91.2,82.1l-0.9,0c-0.8,0-1.2,0.3-1.2,0.8c0,0.5,0.3,0.9,1,0.9c0.6,0,1-0.3,1.2-0.5V82.1z"/>
</g>
<polygon class="st2" points="37.5,42.3 51.1,53.7 64.8,42.3 64.8,20.1 "/>
<linearGradient id="SVGID_1_" gradientUnits="userSpaceOnUse" x1="87.2988" y1="66.5745" x2="69.7198" y2="18.2767">
	<stop  offset="5.976961e-02" style="stop-color:#70D0F6"/>
	<stop  offset="0.2559" style="stop-color:#10ACE4"/>
	<stop  offset="0.367" style="stop-color:#10ACE4"/>
	<stop  offset="0.5343" style="stop-color:#6DCDF4"/>
	<stop  offset="0.945" style="stop-color:#FFFFFF"/>
</linearGradient>
<polygon class="st3" points="92.2,42.6 92,64.9 64.8,42.3 64.8,20.1 "/>
<linearGradient id="SVGID_2_" gradientUnits="userSpaceOnUse" x1="29.5634" y1="57.8996" x2="18.3289" y2="27.033">
	<stop  offset="5.460778e-03" style="stop-color:#70D0F6"/>
	<stop  offset="1" style="stop-color:#FFFFFF"/>
</linearGradient>
<polygon class="st4" points="10.2,42.6 10.4,64.9 37.5,42.3 37.5,20.1 "/>
<polygon class="st5" points="64.8,42.3 51.1,53.7 37.5,42.3 37.5,20.1 "/>
<polygon class="st6" points="37.5,42.3 51.2,31.2 64.8,42.3 51.1,53.7 "/>
</svg>
