<?xml version="1.0" encoding="utf-8"?>
<!-- Generator: Adobe Illustrator 19.2.0, SVG Export Plug-In . SVG Version: 6.00 Build 0)  -->
<!DOCTYPE svg PUBLIC "-//W3C//DTD SVG 1.1//EN" "http://www.w3.org/Graphics/SVG/1.1/DTD/svg11.dtd">
<svg version="1.1" id="Layer_1" xmlns="http://www.w3.org/2000/svg" xmlns:xlink="http://www.w3.org/1999/xlink" x="0px" y="0px"
	 viewBox="0 0 167.2 147.2" enable-background="new 0 0 167.2 147.2" xml:space="preserve">
<path fill="#00AFE8" d="M7.7,7.5H160v61.3c-14.1-6.1-22.8-8.2-38.1-9.5c-30.5-2.5-45.6,21.6-76.1,19c-15.2-1.3-24-3.5-38.1-9.5V7.5z
	"/>
<rect x="7.7" y="129.3" fill="#0070AF" width="152.2" height="10.1"/>
<path d="M70.2,85.5l4.8,37.1h-6.8l-1.6-13.3c-0.2-1.5-0.3-2.7-0.4-3.7c-0.1-1-0.2-1.9-0.3-2.8c-0.1-0.8-0.2-1.7-0.2-2.7
	c-0.1-0.9-0.2-2-0.2-3.4l-0.2-0.1c-0.5,1.2-0.8,2.3-1.2,3.2c-0.3,0.8-0.7,1.7-1,2.5c-0.3,0.8-0.7,1.6-1.1,2.5
	c-0.4,0.9-0.8,2-1.5,3.3l-6.6,14.2h-4.4l-6.5-14c-0.6-1.3-1.1-2.4-1.5-3.3c-0.4-0.8-0.7-1.7-1.1-2.5c-0.3-0.8-0.7-1.6-1-2.5
	c-0.3-0.8-0.7-1.9-1.2-3.2L38,97.2c-0.1,1.4-0.2,2.5-0.2,3.5c-0.1,0.9-0.2,1.8-0.2,2.7c-0.1,0.8-0.2,1.8-0.3,2.8
	c-0.1,1-0.2,2.2-0.4,3.6l-1.6,13h-6.1l5-37.1h5.7l9.1,20c0.4,0.9,0.8,1.7,1.1,2.3c0.3,0.6,0.5,1.2,0.7,1.8c0.2,0.6,0.5,1.1,0.7,1.8
	c0.2,0.6,0.5,1.4,0.8,2.2h0.2c0.3-0.8,0.6-1.6,0.8-2.2c0.2-0.6,0.5-1.1,0.7-1.7c0.2-0.6,0.5-1.2,0.8-1.8c0.3-0.6,0.6-1.4,1-2.3
	l9.1-20H70.2z"/>
<path d="M110.9,88l-3.4,5.6c-1.5-1-2.9-1.7-4.2-2.1c-1.3-0.3-2.7-0.6-4.2-0.6c-1.8,0-3.4,0.3-4.9,1c-1.4,0.6-2.7,1.5-3.7,2.6
	c-1.1,1.1-1.9,2.5-2.4,4.1c-0.6,1.5-0.8,3.3-0.8,5.2c0,1.9,0.3,3.7,1,5.3c0.6,1.6,1.5,3,2.6,4.2c1.1,1.2,2.5,2.1,4,2.8
	c1.5,0.6,3.2,1,5,1c3.1,0,5.9-0.9,8.6-2.7l2.8,5.3c-1.9,1.3-3.9,2.3-5.9,2.9c-2,0.6-4.1,1-6.4,1c-2.8,0-5.3-0.5-7.7-1.5
	c-2.3-1-4.4-2.3-6.1-4c-1.7-1.7-3.1-3.7-4-6.1c-1-2.3-1.4-4.9-1.4-7.7c0-2.8,0.5-5.4,1.5-7.9c1-2.4,2.3-4.5,4-6.2
	c1.8-1.8,3.8-3.1,6.2-4.1c2.3-1,4.9-1.5,7.6-1.5c2.3,0,4.4,0.3,6.2,0.8C107.1,85.9,108.9,86.8,110.9,88z"/>
<path d="M138.8,85.5v5.7h-12.9c-0.3,0-0.5,0-0.7,0c-0.1-0.1-0.3-0.1-0.6-0.2c0.1,0.3,0.1,0.5,0.1,0.7c0.1,0.1,0.1,0.3,0.1,0.6v8
	c0,0.3,0,0.5,0,0.7c-0.1,0.1-0.1,0.3-0.2,0.6c0.3-0.1,0.5-0.1,0.7-0.1c0.1-0.1,0.3-0.1,0.6-0.1h11.3v5.5h-11.3c-0.3,0-0.5,0-0.7,0
	c-0.1-0.1-0.3-0.1-0.6-0.2c0.1,0.3,0.1,0.5,0.1,0.7c0.1,0.1,0.1,0.3,0.1,0.6v14.4h-6.9V85.5H138.8z"/>
<path fill="#00AFE8" d="M7.5,7.6h152.6v61.5c-14.1-6.1-22.9-8.3-38.1-9.5C91.4,57,76.3,81.2,45.7,78.6c-15.3-1.3-24.1-3.5-38.1-9.5
	V7.6z"/>
<rect x="7.5" y="129.7" fill="#0070AF" width="152.6" height="10.2"/>
<path d="M70.2,85.9l4.8,37.2h-6.8l-1.6-13.3c-0.2-1.5-0.3-2.7-0.4-3.7c-0.1-1-0.2-1.9-0.3-2.8c-0.1-0.9-0.2-1.7-0.2-2.7
	c-0.1-0.9-0.2-2-0.2-3.4l-0.2-0.1c-0.5,1.2-0.9,2.3-1.2,3.2c-0.3,0.9-0.7,1.7-1,2.6c-0.3,0.8-0.7,1.6-1.1,2.6
	c-0.4,0.9-0.9,2-1.5,3.3l-6.6,14.2h-4.4l-6.5-14c-0.6-1.3-1.1-2.4-1.5-3.3c-0.4-0.9-0.7-1.7-1.1-2.5c-0.3-0.8-0.7-1.6-1-2.6
	c-0.3-0.9-0.7-1.9-1.2-3.2l-0.2,0.1c-0.1,1.4-0.2,2.5-0.2,3.5c-0.1,0.9-0.2,1.8-0.2,2.7c-0.1,0.9-0.2,1.8-0.3,2.8
	c-0.1,1-0.2,2.2-0.4,3.6l-1.6,13.1H29l5-37.2h5.7l9.1,20c0.4,0.9,0.8,1.7,1.1,2.3c0.3,0.6,0.5,1.2,0.7,1.8c0.2,0.6,0.5,1.1,0.7,1.8
	c0.2,0.6,0.5,1.4,0.9,2.2h0.2c0.3-0.9,0.6-1.6,0.8-2.2c0.2-0.6,0.5-1.1,0.7-1.7c0.2-0.6,0.5-1.2,0.8-1.8c0.3-0.6,0.6-1.4,1-2.3
	l9.1-20H70.2z"/>
<path d="M110.9,88.3l-3.4,5.6c-1.5-1-3-1.7-4.3-2.1c-1.3-0.3-2.7-0.6-4.2-0.6c-1.8,0-3.4,0.3-4.9,1c-1.4,0.6-2.7,1.5-3.7,2.6
	S88.6,97.4,88,99c-0.6,1.5-0.9,3.3-0.9,5.2c0,1.9,0.3,3.7,1,5.3c0.6,1.6,1.5,3,2.6,4.2c1.1,1.2,2.5,2.1,4,2.8c1.5,0.6,3.2,1,5.1,1
	c3.1,0,5.9-0.9,8.6-2.7l2.8,5.3c-1.9,1.3-3.9,2.3-5.9,3s-4.1,1-6.4,1c-2.8,0-5.3-0.5-7.7-1.5c-2.3-1-4.4-2.3-6.1-4
	c-1.7-1.7-3.1-3.7-4-6.1c-1-2.3-1.4-4.9-1.4-7.7c0-2.8,0.5-5.4,1.5-7.9c1-2.4,2.3-4.5,4-6.2c1.8-1.8,3.8-3.1,6.2-4.1
	c2.3-1,4.9-1.5,7.7-1.5c2.3,0,4.4,0.3,6.2,0.8C107.1,86.2,109,87.2,110.9,88.3z"/>
<path d="M138.9,85.9v5.7H126c-0.3,0-0.5,0-0.7,0c-0.1-0.1-0.3-0.1-0.6-0.2c0.1,0.3,0.1,0.5,0.1,0.7c0.1,0.1,0.1,0.3,0.1,0.6v8.1
	c0,0.3,0,0.5,0,0.7c-0.1,0.1-0.1,0.3-0.2,0.6c0.3-0.1,0.5-0.1,0.7-0.1c0.1-0.1,0.3-0.1,0.6-0.1h11.3v5.6H126c-0.3,0-0.5,0-0.7,0
	c-0.1-0.1-0.3-0.1-0.6-0.2c0.1,0.3,0.1,0.5,0.1,0.7c0.1,0.1,0.1,0.3,0.1,0.6v14.5H118V85.9H138.9z"/>
</svg>
