<svg xmlns="http://www.w3.org/2000/svg" width="447.204" height="112.699" viewBox="0 0 447.204 112.699">
  <path id="Path_18" data-name="Path 18" d="M49.539-15.074q0-8.965,5.113-27.492-16,.4-24.5.93-2.59,4.715-4.715,8.965L21.316-24.5Q13.148-8.434,6.641-3.32A16.638,16.638,0,0,1-3.918.664a7.7,7.7,0,0,1-6.441-2.789,4.885,4.885,0,0,1-.93-2.158q-.133-1.029.465-1.361a28.631,28.631,0,0,0,12.418-8.7A91.979,91.979,0,0,0,9.961-27.16l7.5-13.414-4.184.6Q9.3-39.246,9.3-41.238t2.391-3.785a23.278,23.278,0,0,1,8.168-4.117l2.855-.664Q33.6-67.8,39.346-74.973A151.867,151.867,0,0,1,49.838-86.926a72.354,72.354,0,0,1,9.994-8.434q11.488-7.9,22.645-7.9,3.387,0,4.582,1.395a4.674,4.674,0,0,1,1.262,4.682q-.73,2.49-2.391,7.139Q75.3-61.094,72.98-54.187q1.063-.066,1.926-.066h1.461q7.438,0,7.969,1.461a7.169,7.169,0,0,1,.133,1.693,6.682,6.682,0,0,1-.764,2.822,6.763,6.763,0,0,1-2.49,2.723q-3.52,2.391-11.82,2.789Q64.879-27.16,64.248-21.184t.4,8.068a3.193,3.193,0,0,0,2.922,2.092,10.811,10.811,0,0,0,3.088-.365,13.732,13.732,0,0,0,2.125-.83l1.727-.8a2.615,2.615,0,0,1,1.361-.4q.7,0,1.162.9A5.131,5.131,0,0,1,77.5-10.16a7.047,7.047,0,0,1-1.229,3.486,13.789,13.789,0,0,1-3.221,3.619A16.356,16.356,0,0,1,62.555.664Q53.59.664,50.6-7.3a14.207,14.207,0,0,1-1.062-4.98ZM36.258-52.129a216.222,216.222,0,0,1,21.914-1.793q1.859-5.711,3.984-11.289l4.117-10.625Q68.4-80.883,70.457-85.4l3.852-8.168Q60.5-89.98,47.016-69.727q-2.855,4.25-5.578,8.766Zm118.6,38.715q1.395,0,1.395,1.461,0,5.711-5.91,9.828a12.949,12.949,0,0,1-7.4,2.789,15.734,15.734,0,0,1-5.545-.8,10.289,10.289,0,0,1-3.719-2.523q-3.719-3.984-3.719-10.957a29.3,29.3,0,0,1,.531-4.449q-5.379,8.3-9.23,11.688Q113.488.664,106.051.664,94.3.664,90.645-9.961a31.014,31.014,0,0,1-1.328-9.828,41.867,41.867,0,0,1,1.793-11.953A54.826,54.826,0,0,1,95.99-43.23a61.545,61.545,0,0,1,7.172-10.127,59.041,59.041,0,0,1,8.6-8.135q9.7-7.238,17.531-7.238a14.848,14.848,0,0,1,12.551,6.375q11.555-39.578,17.4-46.684,2.457-2.922,5.18-2.922,4.516,0,6.84,2.59a2.682,2.682,0,0,1,.73,1.727,9.737,9.737,0,0,1-1.062,3.188q-1.062,2.324-3.121,7.5-5.91,15.605-8.3,22.844-6.109,18.527-8.234,25.5l-3.652,12.285q-4.715,16.4-4.715,20.852t3.254,4.449a11.942,11.942,0,0,0,4.781-.8l2.523-1.2A2.918,2.918,0,0,1,154.859-13.414ZM109.238-9.3q6.84,0,15.672-13.348a88.613,88.613,0,0,0,12.883-30.082,7.779,7.779,0,0,0-3.785-6.641,7.085,7.085,0,0,0-3.619-.73,12.156,12.156,0,0,0-5.645,1.76A28.1,28.1,0,0,0,118.5-53.59a42.412,42.412,0,0,0-5.645,7.006,55.136,55.136,0,0,0-4.549,8.533,49.025,49.025,0,0,0-4.184,19.291Q104.125-9.3,109.238-9.3Zm55.316,2.855a12.428,12.428,0,0,1-1-5.18,26.752,26.752,0,0,1,.93-6.607,66.624,66.624,0,0,1,2.391-7.4q1.461-3.785,3.254-7.7l3.387-7.7q6.574-15.207,4.848-17.93a8.387,8.387,0,0,0-3.055-2.523,1.777,1.777,0,0,1-.73-1.627,3.287,3.287,0,0,1,.963-2.225A8.576,8.576,0,0,1,178.1-67.2a14.775,14.775,0,0,1,6.441-1.527,13.572,13.572,0,0,1,4.947.7,9.148,9.148,0,0,1,2.822,1.76,7.35,7.35,0,0,1,2.125,5.313,24.406,24.406,0,0,1-1.2,7.039q-1.2,3.918-2.988,8.234t-3.918,8.832l-3.918,8.7q-4.184,9.629-4.184,12.75,0,6.109,4.316,6.109,11.09,0,20.785-13.148a49.927,49.927,0,0,0,8.1-16.6,30.378,30.378,0,0,0,1.129-7.736q0-3.486-.232-5.811a22.419,22.419,0,0,0-.764-4.117,13.5,13.5,0,0,0-2.922-5.512q-1.395-1.727,1.262-4.051,2.922-2.457,8.3-2.457a7.385,7.385,0,0,1,5.844,3.121q3.188,3.719,3.188,10.658a45.933,45.933,0,0,1-2.059,13.613,61.035,61.035,0,0,1-5.645,12.816,66.3,66.3,0,0,1-8.467,11.455,63.325,63.325,0,0,1-10.525,9.23q-12.086,8.5-24.172,8.5Q167.676.664,164.555-6.441ZM285.016-17.664q0,6.109,4.316,6.109a11.539,11.539,0,0,0,4.947-.93,8.132,8.132,0,0,1,2.623-.93q1.395,0,1.395,1.461,0,5.711-5.977,9.828Q286.012,2.191,279.438,0q-4.316-1.527-6.375-6.574a13.266,13.266,0,0,1-1-4.715,43.057,43.057,0,0,1,.664-7.3q-6.176,12.617-15.34,17.4a16.89,16.89,0,0,1-7.77,1.859,14.37,14.37,0,0,1-7.139-1.693,15.7,15.7,0,0,1-5.146-4.682q-4.316-6.242-3.918-15.672a49.145,49.145,0,0,1,6.973-23.176,54.169,54.169,0,0,1,15.273-17.332q9.23-6.84,17.266-6.84t12.949,7.371q4.582-7.371,8.1-7.371a9.7,9.7,0,0,1,5.711,1.395q3.652,2.656,2.59,4.648-16.668,34.133-17.133,42.5A22.875,22.875,0,0,0,285.016-17.664ZM248.16-17.4q0,7.969,5.113,7.969,3.918,0,9.629-6.641,8.367-9.762,14.809-26.3a94.706,94.706,0,0,0,3.453-10.359,7.779,7.779,0,0,0-3.785-6.641,6.921,6.921,0,0,0-3.553-.73,11.871,11.871,0,0,0-5.512,1.727,26.672,26.672,0,0,0-6.109,4.715,40.769,40.769,0,0,0-5.512,7.072,56.318,56.318,0,0,0-4.482,8.865A54.858,54.858,0,0,0,248.16-17.4ZM355.273-56.18q-2.059,0-5.844,3.951t-6.574,7.205l-5.645,6.773L326.32-24.371q-3.852,7.3-6.043,12.152l-3.586,7.7A19.064,19.064,0,0,1,314.268-.5,3.537,3.537,0,0,1,311.479.664a9.287,9.287,0,0,1-3.387-.631,10.032,10.032,0,0,1-2.822-1.627,6.076,6.076,0,0,1-2.523-4.648,11.7,11.7,0,0,1,1.461-3.918l2.523-5.379q1.2-2.391,2.789-6.109l3.719-9.1q7.836-19.59,7.836-25.3a5.228,5.228,0,0,0-1.992-4.516l-1.328-.93a1.848,1.848,0,0,1-.664-1.627,3.412,3.412,0,0,1,.9-2.225,8.129,8.129,0,0,1,2.357-1.859,13.093,13.093,0,0,1,6.01-1.527,13.051,13.051,0,0,1,4.682.664,8.182,8.182,0,0,1,2.789,1.793,6.714,6.714,0,0,1,2.457,4.848,21.142,21.142,0,0,1-.631,5.08,49.328,49.328,0,0,1-1.594,5.18q-.963,2.623-2.025,5.146t-1.926,4.383l-1.328,2.855q-.531,1.062-.266.664,7.371-10.227,9.7-13.148l4.648-5.578q5.113-5.977,8.035-7.9,5.91-3.984,9.3-3.984a16.5,16.5,0,0,1,5.711.863,12.124,12.124,0,0,1,4.051,2.457,11.255,11.255,0,0,1,3.652,8.633,28.346,28.346,0,0,1-2.391,10.957q-2.391,5.711-4.15,9.264t-3.354,7.205q-4.98,11.09-4.98,16.137,0,2.258,3.586,2.258a10.814,10.814,0,0,0,5.08-1.2,9.316,9.316,0,0,1,2.955-1.2,1.233,1.233,0,0,1,1.395,1.395q0,5.91-6.043,9.895A13.636,13.636,0,0,1,358.262.664a18.262,18.262,0,0,1-5.611-.73A10.667,10.667,0,0,1,348.7-2.391q-3.918-3.52-3.918-9.828,0-7.7,4.848-19.258,3.52-7.9,4.98-10.824l2.258-4.715a16.793,16.793,0,0,0,2.059-6.707Q358.926-56.18,355.273-56.18ZM422.344-17.4q1.926,0,1.926,2.59a7.74,7.74,0,0,1-1.328,4.25q-1.793,3.852-7.172,7.3A22.581,22.581,0,0,1,403.484.664q-10.691,0-13.547-9.562-3.387-11.355,10.16-48.145-7.637-.664-8.3-2.656a4.071,4.071,0,0,1-.2-1.295,3.036,3.036,0,0,1,.631-1.627,9.326,9.326,0,0,1,1.627-1.793,7.371,7.371,0,0,1,4.715-1.926h5.246q7.172-16.8,10.227-19.125a5.4,5.4,0,0,1,3.254-1.062,8.305,8.305,0,0,1,2.988.465,6.619,6.619,0,0,1,2.125,1.328,5.991,5.991,0,0,1,2.125,4.449,7.453,7.453,0,0,1-.8,3.055l-4.914,10.691h1.594q4.117,0,6.641-.066l3.785-.066q1.262-.066,3.154-.066t1.893,1.395q0,8.766-20.719,8.766h-.531l-4.516,11.688q-7.637,20.719-7.637,29.02a5.554,5.554,0,0,0,1.063,3.619q1.063,1.295,3.984,1.295a13.685,13.685,0,0,0,5.313-1,23.123,23.123,0,0,0,4.184-2.225q1.793-1.229,3.088-2.225A3.919,3.919,0,0,1,422.344-17.4Z" transform="translate(11.313 111.961)" fill="#fff"/>
</svg>
